<mxfile host="app.diagrams.net" modified="2023-02-22T04:26:40.352Z" agent="5.0 (Windows NT 10.0; Win64; x64) AppleWebKit/537.36 (KHTML, like Gecko) Chrome/110.0.0.0 Safari/537.36" etag="MLsOxVq3P0HK3Nhj1svp" version="20.8.20" type="github" pages="3">
  <diagram name="Page-1" id="RRtSyFrXi-h0Fl-k7PDl">
    <mxGraphModel dx="651" dy="387" grid="0" gridSize="10" guides="1" tooltips="1" connect="1" arrows="1" fold="1" page="1" pageScale="1" pageWidth="827" pageHeight="1169" math="0" shadow="0">
      <root>
        <mxCell id="0" />
        <mxCell id="1" parent="0" />
        <mxCell id="YXMGN7-SAdR5anMw_ZPR-1" value="" style="shape=image;verticalLabelPosition=bottom;labelBackgroundColor=default;verticalAlign=top;aspect=fixed;imageAspect=0;image=https://upload.wikimedia.org/wikipedia/commons/thumb/c/cf/Angular_full_color_logo.svg/1200px-Angular_full_color_logo.svg.png;imageBackground=none;imageBorder=none;" parent="1" vertex="1">
          <mxGeometry x="147" y="77" width="74" height="74" as="geometry" />
        </mxCell>
        <mxCell id="YXMGN7-SAdR5anMw_ZPR-2" value="" style="shape=image;verticalLabelPosition=bottom;labelBackgroundColor=default;verticalAlign=top;aspect=fixed;imageAspect=0;image=https://upload.wikimedia.org/wikipedia/commons/thumb/e/ee/.NET_Core_Logo.svg/2048px-.NET_Core_Logo.svg.png;" parent="1" vertex="1">
          <mxGeometry x="295" y="81.54" width="58" height="58" as="geometry" />
        </mxCell>
        <mxCell id="YXMGN7-SAdR5anMw_ZPR-3" value="" style="shape=image;verticalLabelPosition=bottom;labelBackgroundColor=default;verticalAlign=top;aspect=fixed;imageAspect=0;image=https://upload.wikimedia.org/wikipedia/commons/thumb/b/b2/Bootstrap_logo.svg/800px-Bootstrap_logo.svg.png;" parent="1" vertex="1">
          <mxGeometry x="221" y="88.46" width="64" height="51.08" as="geometry" />
        </mxCell>
        <mxCell id="YXMGN7-SAdR5anMw_ZPR-7" value="" style="shape=image;verticalLabelPosition=bottom;labelBackgroundColor=default;verticalAlign=top;aspect=fixed;imageAspect=0;image=https://docs.duendesoftware.com/identityserver/v5/images/logo.png;" parent="1" vertex="1">
          <mxGeometry x="173" y="149" width="160" height="57.95" as="geometry" />
        </mxCell>
      </root>
    </mxGraphModel>
  </diagram>
  <diagram id="tZszzuecyGoYFoCpqDK9" name="Page-2">
    <mxGraphModel dx="651" dy="387" grid="0" gridSize="10" guides="1" tooltips="1" connect="1" arrows="1" fold="1" page="1" pageScale="1" pageWidth="827" pageHeight="1169" math="0" shadow="0">
      <root>
        <mxCell id="0" />
        <mxCell id="1" parent="0" />
        <mxCell id="aqejZr4RmZh0nsbXgAj8-1" value="" style="shape=image;verticalLabelPosition=bottom;labelBackgroundColor=default;verticalAlign=top;aspect=fixed;imageAspect=0;image=https://upload.wikimedia.org/wikipedia/commons/thumb/c/cf/Angular_full_color_logo.svg/1200px-Angular_full_color_logo.svg.png;imageBackground=none;imageBorder=none;" vertex="1" parent="1">
          <mxGeometry x="218" y="48" width="132.86" height="132.86" as="geometry" />
        </mxCell>
        <mxCell id="aqejZr4RmZh0nsbXgAj8-2" value="" style="shape=image;verticalLabelPosition=bottom;labelBackgroundColor=default;verticalAlign=top;aspect=fixed;imageAspect=0;image=https://upload.wikimedia.org/wikipedia/commons/thumb/b/b2/Bootstrap_logo.svg/800px-Bootstrap_logo.svg.png;" vertex="1" parent="1">
          <mxGeometry x="160" y="129" width="68.02" height="54.29" as="geometry" />
        </mxCell>
        <mxCell id="aqejZr4RmZh0nsbXgAj8-3" value="" style="shape=image;verticalLabelPosition=bottom;labelBackgroundColor=default;verticalAlign=top;aspect=fixed;imageAspect=0;image=https://upload.wikimedia.org/wikipedia/commons/a/a4/Datatables_logo_square.png;" vertex="1" parent="1">
          <mxGeometry x="157" y="52" width="66" height="66" as="geometry" />
        </mxCell>
        <mxCell id="n8Hk2mHUMEMIRm8SsqOf-1" value="" style="shape=image;verticalLabelPosition=bottom;labelBackgroundColor=default;verticalAlign=top;aspect=fixed;imageAspect=0;image=https://upload.wikimedia.org/wikipedia/commons/thumb/e/ee/.NET_Core_Logo.svg/2048px-.NET_Core_Logo.svg.png;" vertex="1" parent="1">
          <mxGeometry x="350.86" y="64.27000000000001" width="100.32" height="100.32" as="geometry" />
        </mxCell>
      </root>
    </mxGraphModel>
  </diagram>
  <diagram id="p2_DKdG5H4pRZKdozPE8" name="Page-3">
    <mxGraphModel dx="651" dy="387" grid="0" gridSize="10" guides="1" tooltips="1" connect="1" arrows="1" fold="1" page="1" pageScale="1" pageWidth="827" pageHeight="1169" math="0" shadow="0">
      <root>
        <mxCell id="0" />
        <mxCell id="1" parent="0" />
        <mxCell id="nPiBJ7qoMw4j6-lvlBPL-1" value="" style="shape=image;verticalLabelPosition=bottom;labelBackgroundColor=default;verticalAlign=top;aspect=fixed;imageAspect=0;image=https://upload.wikimedia.org/wikipedia/commons/thumb/c/cf/Angular_full_color_logo.svg/1200px-Angular_full_color_logo.svg.png;imageBackground=none;imageBorder=none;" vertex="1" parent="1">
          <mxGeometry x="85" y="25" width="126" height="126" as="geometry" />
        </mxCell>
        <mxCell id="nPiBJ7qoMw4j6-lvlBPL-2" value="" style="shape=image;verticalLabelPosition=bottom;labelBackgroundColor=default;verticalAlign=top;aspect=fixed;imageAspect=0;image=https://upload.wikimedia.org/wikipedia/commons/thumb/b/b2/Bootstrap_logo.svg/800px-Bootstrap_logo.svg.png;" vertex="1" parent="1">
          <mxGeometry x="229" y="44" width="116" height="92.58" as="geometry" />
        </mxCell>
      </root>
    </mxGraphModel>
  </diagram>
</mxfile>
